<svg id="Layer_1" data-name="Layer 1" xmlns="http://www.w3.org/2000/svg" viewBox="0 0 355.22 133.97"><defs><style>.cls-1{fill:#757575;}.cls-2{fill:#4caf50;}.cls-3{fill:#212121;}</style></defs><title>z</title><path class="cls-1" d="M157.42,99.25a7.57,7.57,0,0,1,1.39-4.79,4.81,4.81,0,0,1,6.77-.7,4.69,4.69,0,0,1,.6.58l.11-1.43h2v12.58a5.29,5.29,0,0,1-1.48,3.94,5.48,5.48,0,0,1-4,1.44,6.54,6.54,0,0,1-2.72-.6,4.75,4.75,0,0,1-2-1.63l1.14-1.32a4.31,4.31,0,0,0,3.47,1.75,3.31,3.31,0,0,0,2.5-.91,3.45,3.45,0,0,0,.9-2.54v-1.11a4.49,4.49,0,0,1-3.6,1.52,4.39,4.39,0,0,1-3.66-1.82A7.84,7.84,0,0,1,157.42,99.25Zm2.21.25a5.82,5.82,0,0,0,.89,3.42,2.92,2.92,0,0,0,2.5,1.24,3.23,3.23,0,0,0,3.06-1.89V96.39a3.25,3.25,0,0,0-3-1.84,2.91,2.91,0,0,0-2.51,1.25,6.26,6.26,0,0,0-.94,3.7Z"/><path class="cls-1" d="M173.77,105.79h-2.2V87.51h2.2Z"/><path class="cls-1" d="M176.46,99.24a7.58,7.58,0,0,1,.75-3.41,5.49,5.49,0,0,1,2.07-2.33,5.56,5.56,0,0,1,3-.82,5.41,5.41,0,0,1,4.25,1.82,7,7,0,0,1,1.63,4.84v.16a7.68,7.68,0,0,1-.72,3.37,5.47,5.47,0,0,1-2.06,2.33,5.77,5.77,0,0,1-3.08.83,5.4,5.4,0,0,1-4.24-1.82,7,7,0,0,1-1.63-4.82Zm2.22.26a5.47,5.47,0,0,0,1,3.44,3.37,3.37,0,0,0,5.33,0,6,6,0,0,0,1-3.68,5.47,5.47,0,0,0-1-3.44,3.36,3.36,0,0,0-4.7-.6,3.41,3.41,0,0,0-.6.6A6,6,0,0,0,178.68,99.5Z"/><path class="cls-1" d="M201.61,99.5a7.55,7.55,0,0,1-1.36,4.74,4.29,4.29,0,0,1-3.64,1.79,4.49,4.49,0,0,1-3.77-1.72l-.11,1.48h-2V87.51h2.2v6.82a4.46,4.46,0,0,1,3.68-1.65,4.37,4.37,0,0,1,3.68,1.77,7.85,7.85,0,0,1,1.34,4.86Zm-2.2-.25a6,6,0,0,0-.87-3.48,2.87,2.87,0,0,0-2.5-1.22,3.23,3.23,0,0,0-3.13,2v5.57a3.32,3.32,0,0,0,3.15,2,2.87,2.87,0,0,0,2.47-1.22A6.39,6.39,0,0,0,199.41,99.25Z"/><path class="cls-1" d="M212.09,105.79a4.82,4.82,0,0,1-.31-1.35,4.9,4.9,0,0,1-3.66,1.59A4.64,4.64,0,0,1,205,105a3.5,3.5,0,0,1-1.22-2.74,3.63,3.63,0,0,1,1.53-3.12A7.26,7.26,0,0,1,209.61,98h2.14V97a2.51,2.51,0,0,0-.69-1.84,2.81,2.81,0,0,0-2-.68,3.17,3.17,0,0,0-2,.6,1.72,1.72,0,0,0-.8,1.44H204a3,3,0,0,1,.69-1.87,4.73,4.73,0,0,1,1.86-1.42,6.32,6.32,0,0,1,2.57-.52,5.08,5.08,0,0,1,3.49,1.11A4,4,0,0,1,214,96.88v5.92a7.14,7.14,0,0,0,.45,2.82v.19Zm-3.65-1.67a3.8,3.8,0,0,0,2-.54,3.29,3.29,0,0,0,1.35-1.39V99.57h-1.73q-4,0-4,2.37a2,2,0,0,0,.7,1.62,2.68,2.68,0,0,0,1.68.56Z"/><path class="cls-1" d="M219.55,105.79h-2.2V87.51h2.2Z"/><path class="cls-1" d="M230.82,94.47a4.71,4.71,0,0,1,3.81-1.79q4.1,0,4.12,4.6v8.51h-2.2V97.27a3,3,0,0,0-.64-2.06,2.57,2.57,0,0,0-1.94-.66,3.23,3.23,0,0,0-1.88.57,4,4,0,0,0-1.27,1.5v9.17h-2.2V87.51h2.2Z"/><path class="cls-1" d="M247.15,106a5.6,5.6,0,0,1-4.26-1.72,6.33,6.33,0,0,1-1.64-4.6v-.4a7.81,7.81,0,0,1,.73-3.43A5.79,5.79,0,0,1,244,93.57a5.07,5.07,0,0,1,2.85-.85,4.84,4.84,0,0,1,3.9,1.65,7.12,7.12,0,0,1,1.4,4.74V100h-8.73a4.54,4.54,0,0,0,1.11,3.07,3.55,3.55,0,0,0,2.71,1.18,3.77,3.77,0,0,0,2-.48,5,5,0,0,0,1.41-1.26l1.35,1A5.41,5.41,0,0,1,247.15,106Zm-.27-11.54a2.9,2.9,0,0,0-2.24,1,4.65,4.65,0,0,0-1.12,2.72H250V98a4.17,4.17,0,0,0-.9-2.6A2.77,2.77,0,0,0,246.88,94.49Z"/><path class="cls-1" d="M262.43,105.79a4.49,4.49,0,0,1-.31-1.35,4.92,4.92,0,0,1-3.67,1.59,4.55,4.55,0,0,1-3.12-1.07,3.5,3.5,0,0,1-1.22-2.74,3.63,3.63,0,0,1,1.53-3.12,7.25,7.25,0,0,1,4.3-1.11h2.15V97a2.48,2.48,0,0,0-.7-1.84,2.76,2.76,0,0,0-2-.68,3.17,3.17,0,0,0-2,.6,1.73,1.73,0,0,0-.79,1.44h-2.25a3,3,0,0,1,.69-1.87,4.63,4.63,0,0,1,1.85-1.42,6.17,6.17,0,0,1,2.58-.52A5.13,5.13,0,0,1,263,93.81a4,4,0,0,1,1.31,3.07v5.92a7.14,7.14,0,0,0,.45,2.82v.19Zm-3.65-1.67a3.8,3.8,0,0,0,2-.54,3.29,3.29,0,0,0,1.35-1.39V99.57h-1.78q-4,0-4.05,2.37a2,2,0,0,0,.69,1.62A2.64,2.64,0,0,0,258.78,104.12Z"/><path class="cls-1" d="M269.89,105.79h-2.2V87.51h2.2Z"/><path class="cls-1" d="M276.16,89.8v3.11h2.4v1.71h-2.4v8a1.79,1.79,0,0,0,.32,1.17,1.38,1.38,0,0,0,1.09.38,4.82,4.82,0,0,0,1-.14v1.78a6.44,6.44,0,0,1-1.69.23,2.76,2.76,0,0,1-2.23-.89,3.85,3.85,0,0,1-.75-2.54v-8h-2.34v-1.7h2.34V89.8Z"/><path class="cls-1" d="M283.09,94.47a4.71,4.71,0,0,1,3.81-1.79c2.72,0,4.1,1.53,4.12,4.6v8.51h-2.2V97.27a3,3,0,0,0-.64-2.06,2.59,2.59,0,0,0-1.95-.66,3.23,3.23,0,0,0-1.88.57,3.82,3.82,0,0,0-1.26,1.5v9.17h-2.2V87.51h2.2Z"/><path class="cls-1" d="M305,104.24a3.16,3.16,0,0,0,2.06-.72,2.48,2.48,0,0,0,1-1.78h2.09a4,4,0,0,1-.76,2.1,5.1,5.1,0,0,1-1.88,1.6,5.49,5.49,0,0,1-2.48.59,5.3,5.3,0,0,1-4.18-1.75,7,7,0,0,1-1.56-4.81V99.1a7.85,7.85,0,0,1,.69-3.34,5.18,5.18,0,0,1,2-2.27,5.58,5.58,0,0,1,3.06-.81,5.22,5.22,0,0,1,3.6,1.29,4.7,4.7,0,0,1,1.53,3.37h-2.09a3,3,0,0,0-.94-2,2.93,2.93,0,0,0-2.1-.8,3.1,3.1,0,0,0-2.6,1.2,5.69,5.69,0,0,0-.93,3.5v.33a5.56,5.56,0,0,0,.92,3.43A3.08,3.08,0,0,0,305,104.24Z"/><path class="cls-1" d="M314.77,105.79h-2.2V87.51h2.2Z"/><path class="cls-1" d="M317.47,99.24a7.71,7.71,0,0,1,.74-3.41,5.5,5.5,0,0,1,5.1-3.15,5.44,5.44,0,0,1,4.26,1.82,7,7,0,0,1,1.63,4.84v.16a7.68,7.68,0,0,1-.72,3.37,5.47,5.47,0,0,1-2.06,2.33,5.77,5.77,0,0,1-3.08.83,5.4,5.4,0,0,1-4.24-1.82,6.93,6.93,0,0,1-1.63-4.82Zm2.21.26a5.47,5.47,0,0,0,1,3.44,3.37,3.37,0,0,0,4.73.6,3.1,3.1,0,0,0,.6-.6,6.08,6.08,0,0,0,1-3.68,5.47,5.47,0,0,0-1-3.44,3.36,3.36,0,0,0-4.71-.6,3.41,3.41,0,0,0-.6.6A6,6,0,0,0,319.68,99.5Z"/><path class="cls-1" d="M339.67,104.57a4.69,4.69,0,0,1-3.78,1.51,4,4,0,0,1-3.13-1.19,5.17,5.17,0,0,1-1.09-3.55V92.91h2.2v8.33c0,2,.79,2.92,2.38,2.92a3.3,3.3,0,0,0,3.36-1.88V92.91h2.2v12.88h-2.1Z"/><path class="cls-1" d="M344.35,99.25a7.53,7.53,0,0,1,1.41-4.77,4.79,4.79,0,0,1,6.73-.75,4.1,4.1,0,0,1,.53.49V87.51h2.2v18.28h-2l-.11-1.38a4.49,4.49,0,0,1-3.68,1.62,4.42,4.42,0,0,1-3.65-1.83,7.65,7.65,0,0,1-1.41-4.79Zm2.21.25a5.77,5.77,0,0,0,.9,3.43,2.91,2.91,0,0,0,2.5,1.23,3.2,3.2,0,0,0,3.06-1.88V96.37a3.23,3.23,0,0,0-3-1.82,2.92,2.92,0,0,0-2.52,1.25,6.33,6.33,0,0,0-.92,3.7Z"/><path class="cls-2" d="M115.16,91.8a11.83,11.83,0,1,1,0,.23v-.24"/><path class="cls-2" d="M116.55,52a11.78,11.78,0,1,1,11.84,12,11.64,11.64,0,0,1-11.84-11.42v-.06h0V52"/><path class="cls-2" d="M116.55,12.12A12.13,12.13,0,0,1,128.35,0a12,12,0,0,1,11.84,12.1v.1a11.93,11.93,0,0,1-11.84,11.85c-6.6.24-11.84-5.34-11.84-12"/><path class="cls-2" d="M262.64,30.26a16.32,16.32,0,0,0-9.45,2.85,19.54,19.54,0,0,0-6.72,7.81A25.56,25.56,0,0,0,244.08,52v1.59a24.2,24.2,0,0,0,2.5,10.83,18.34,18.34,0,0,0,7,7.63,20,20,0,0,0,10,2.72c6.61,0,11.84-2.5,15.37-7.62l.46-.69-4.33-3.29-.57.67a13.85,13.85,0,0,1-4.77,4,12.57,12.57,0,0,1-6.06,1.26,11.93,11.93,0,0,1-9.46-4.45,16.3,16.3,0,0,1-3.87-11h29.5V50.26c0-6.06-1.6-11-4.67-14.69S267.82,30.26,262.64,30.26ZM250.64,48a16.06,16.06,0,0,1,3.92-8.53,10.51,10.51,0,0,1,8-3.42,9.49,9.49,0,0,1,7.63,3.42,13.47,13.47,0,0,1,3,8.65L250.66,48Z"/><polygon class="cls-3" points="18.67 64.14 6.72 30.91 0 30.91 16.16 74.05 21.17 74.05 37.22 30.91 30.62 30.91 18.67 64.14"/><rect class="cls-3" x="42.11" y="30.91" width="6.49" height="43.14"/><path class="cls-3" d="M80.35,52.34a35.25,35.25,0,0,0-9.23-3,28.56,28.56,0,0,1-8-3,4.77,4.77,0,0,1-1.94-4,5.41,5.41,0,0,1,2.28-4.44c1.61-1.2,3.88-1.62,6.6-1.62a10.82,10.82,0,0,1,7.07,2.16,6.62,6.62,0,0,1,2.78,5.13v.91H86.4v-.91A11.6,11.6,0,0,0,81.82,34C79,31.62,75,30.37,70.09,30.37A17.3,17.3,0,0,0,59,33.75a10.65,10.65,0,0,0-4.44,8.82,10.53,10.53,0,0,0,1.6,5.78,12.6,12.6,0,0,0,4.86,4,33.64,33.64,0,0,0,8.76,2.73,18.78,18.78,0,0,1,7.86,3,5.47,5.47,0,0,1,2.27,4.66,5.66,5.66,0,0,1-2.54,4.57,12.15,12.15,0,0,1-7.18,1.94,12.79,12.79,0,0,1-7.61-2,6.83,6.83,0,0,1-3-5.47V60.64h-6.3v1a11.68,11.68,0,0,0,4.79,9.55c3,2.5,7.29,3.64,12.12,3.64A19.14,19.14,0,0,0,81.72,71.5a10.75,10.75,0,0,0,4.56-9,11,11,0,0,0-1.6-5.93C84.11,54.81,82.41,53.35,80.35,52.34Z"/><rect class="cls-3" x="92.31" y="30.91" width="6.49" height="43.14"/><path class="cls-3" d="M177.25,30.26a15.8,15.8,0,0,0-12.6,6.06V31h-6.14V74.16h6.37v-29a14.6,14.6,0,0,1,4.47-6.59,10.85,10.85,0,0,1,6.83-2.5c3,0,5.35.79,6.6,2.28,1.48,1.59,2,4.21,2.17,7.62V74h6.37V46c0-5.23-1.25-9.09-3.53-11.83S181.88,30.26,177.25,30.26Z"/><path class="cls-2" d="M216.49,68.57a31.76,31.76,0,0,1-3.64.46,4.35,4.35,0,0,1-3.42-1.26,7.83,7.83,0,0,1-1-4.54V36.57h8.42V31h-8.42V20.44h-6.49V31h-7.59v5.55H202V63.12c0,3.75.79,6.6,2.28,8.53s4.21,3,7.63,3a16.83,16.83,0,0,0,5.23-.68l.68-.23-.34-5.46Z"/><path class="cls-2" d="M239.59,30.26a12.75,12.75,0,0,0-10.69,5.05l-.13-4.26h-6.42V74.19h6.38V45a12.21,12.21,0,0,1,3.86-6.37,9.8,9.8,0,0,1,6.6-2.16,20.91,20.91,0,0,1,2.85.22l1,.23.12-5.92-.58-.34A7.08,7.08,0,0,0,239.59,30.26Z"/><path class="cls-2" d="M319.61,50.26c0-6.06-1.59-11-4.67-14.69s-7.38-5.45-12.63-5.45A16.57,16.57,0,0,0,292.86,33a19.72,19.72,0,0,0-6.71,7.86,25.52,25.52,0,0,0-2.39,11.11v1.57a24.12,24.12,0,0,0,2.5,10.81,18.05,18.05,0,0,0,6.94,7.62,20,20,0,0,0,10,2.78c6.6,0,11.84-2.5,15.37-7.62l.45-.69-4.32-3.3-.57.68a14,14,0,0,1-4.79,4,12.78,12.78,0,0,1-6,1.24,11.89,11.89,0,0,1-9.49-4.44A16.27,16.27,0,0,1,290,53.46h29.36l.23-3.3ZM290.47,48a15.93,15.93,0,0,1,3.88-8.53,10.51,10.51,0,0,1,8-3.42A9.49,9.49,0,0,1,310,39.45a13.6,13.6,0,0,1,3,8.65L290.44,48Z"/><path class="cls-2" d="M115.22,121.85a11.84,11.84,0,0,1,23.67-.69q0,.34,0,.69A12.12,12.12,0,0,1,127.05,134a12.26,12.26,0,0,1-11.83-12.12"/><path class="cls-3" d="M128.5,28A24.08,24.08,0,1,0,152.58,52h0A24.07,24.07,0,0,0,128.51,28Zm0,41.51A17.44,17.44,0,1,1,145.93,52h0a17.43,17.43,0,0,1-17.37,17.49h0Z"/></svg>